<?xml version="1.0" encoding="UTF-8"?>
<!DOCTYPE svg PUBLIC "-//W3C//DTD SVG 1.1//EN" "http://www.w3.org/Graphics/SVG/1.1/DTD/svg11.dtd">
<!-- Creator: CorelDRAW 2019 (64-Bit) -->
<svg xmlns="http://www.w3.org/2000/svg" xml:space="preserve" width="24mm" height="24mm" version="1.1" style="shape-rendering:geometricPrecision; text-rendering:geometricPrecision; image-rendering:optimizeQuality; fill-rule:evenodd; clip-rule:evenodd"
viewBox="0 0 2385.82 2385.82"
 xmlns:xlink="http://www.w3.org/1999/xlink"
 xmlns:xodm="http://www.corel.com/coreldraw/odm/2003">
 <defs>
  <style type="text/css">
   <![CDATA[
    .fil0 {fill:white}
   ]]>
  </style>
 </defs>
 <g id="Layer_x0020_1">
  <metadata id="CorelCorpID_0Corel-Layer"/>
  <path class="fil0" d="M99.41 2087.61l596.46 0 0 198.81 -596.46 0 0 -198.81zm0 -497.06c-54.9,0 -99.41,-44.51 -99.41,-99.41l0 -497.05c0,-54.9 44.51,-99.41 99.41,-99.41l0 -198.82c-54.9,0 -99.41,-44.51 -99.41,-99.41l0 -497.05c0,-54.9 44.51,-99.41 99.41,-99.41l2187.01 0c54.9,0 99.41,44.51 99.41,99.41l0 497.05c0,54.9 -44.51,99.41 -99.41,99.41l0 198.82c54.9,0 99.41,44.51 99.41,99.41l0 497.05c0,54.9 -44.51,99.41 -99.41,99.41l-2187.01 0zm527.56 -198.82l1061.15 0 0.01 0c220.62,-0.01 399.47,-178.86 399.47,-399.47 0,-171.9 -108.57,-318.43 -260.89,-374.77 -12.3,-233.28 -205.35,-418.67 -441.69,-418.67 -184.43,0 -342.48,112.91 -408.85,273.36 -34.73,-12.49 -72.18,-19.31 -111.21,-19.31 -169.66,0 -309.29,128.55 -326.86,293.56 -138.38,38.76 -239.87,165.8 -239.87,316.57 0,181.55 147.19,328.74 328.74,328.74zm1062.99 695.88l596.46 0 0 198.81 -596.46 0 0 -198.81zm-397.64 -298.24l0 198.82 198.82 0 0 397.64 -596.46 0 0 -397.64 198.82 0 0 -198.82 198.82 0z"/>
 </g>
</svg>
