<?xml version="1.0" encoding="UTF-8"?>
<!DOCTYPE svg PUBLIC "-//W3C//DTD SVG 1.1//EN" "http://www.w3.org/Graphics/SVG/1.1/DTD/svg11.dtd">
<!-- Creator: CorelDRAW 2019 (64-Bit) -->
<svg xmlns="http://www.w3.org/2000/svg" xml:space="preserve" width="97.3458mm" height="36.7012mm" version="1.1" style="shape-rendering:geometricPrecision; text-rendering:geometricPrecision; image-rendering:optimizeQuality; fill-rule:evenodd; clip-rule:evenodd"
viewBox="0 0 9720.34 3664.75"
 xmlns:xlink="http://www.w3.org/1999/xlink"
 xmlns:xodm="http://www.corel.com/coreldraw/odm/2003">
 <defs>
  <style type="text/css">
   <![CDATA[
    .fil3 {fill:none;fill-rule:nonzero}
    .fil0 {fill:#2B2A29;fill-rule:nonzero}
    .fil2 {fill:#4E263B;fill-rule:nonzero}
    .fil1 {fill:#B03273;fill-rule:nonzero}
   ]]>
  </style>
     <clipPath id="id0" style="clip-rule:nonzero">
      <path d="M1645.55 3158.93c113.28,112.4 240.56,205.82 380.19,281.02 140.51,75.21 287.64,131.38 441.39,168.57 153.74,37.2 308.26,56.23 462.83,56.23 205,-0.82 385.17,-30.58 542.2,-89.26 156.2,-57.88 287.64,-138.06 394.24,-240.5 106.59,-102.5 186.78,-219.88 241.37,-352.13 54.53,-133.08 81.83,-274.4 81.83,-424 -0.88,-139.69 -23.2,-261.17 -66.95,-366.12 -44.63,-104.14 -103.32,-194.23 -177.7,-271.07 -74.39,-76.9 -158.73,-143.03 -251.27,-199.2 -92.6,-56.23 -188.48,-104.96 -287.65,-147.95 -99.15,-42.99 -195.04,-82.64 -287.64,-119.83 -92.54,-36.38 -176.83,-73.56 -251.21,-112.4 -74.39,-38.01 -133.08,-80.18 -177.71,-127.27 -43.82,-46.33 -66.12,-100.86 -66.94,-163.71 0,-48.73 13.23,-91.73 39.65,-129.74 26.47,-38 66.94,-67.76 122.35,-89.26 56.17,-22.32 127.27,-33.91 214.85,-33.91 93.41,0.88 187.66,14.88 282.66,42.17 95.07,28.12 185.15,65.3 271.13,112.4 85.92,46.27 162.83,99.22 229.77,157.85l366.95 -709.12c-103.32,-90.9 -214.91,-166.11 -336.38,-225.61 -121.48,-59.51 -247.12,-103.33 -378.55,-132.26 -130.62,-29.76 -262.82,-43.82 -395.89,-43.82 -186.78,0.82 -358.68,26.48 -514.08,77.73 -156.21,51.2 -291.8,124.76 -406.66,219.82 -115.73,95.06 -204.17,209.1 -267.79,342.18 -62.84,133.07 -95.06,281.84 -95.88,446.31 0.82,138.06 23.14,259.53 67.77,364.5 43.81,104.14 102.5,195.03 176.88,272.76 74.39,77.67 158.68,145.44 251.27,203.3 92.54,57.87 188.42,109.12 287.59,154.57 99.21,44.62 195.1,86.8 287.64,124.82 93.42,38.83 176.89,78.49 251.27,118.2 74.39,39.65 133.89,82.64 177.71,129.73 43.81,47.97 66.12,102.5 66.94,164.47 0,47.15 -14.05,88.44 -41.35,125.64 -27.23,38.01 -67.76,66.95 -122.29,89.26 -54.59,21.5 -122.36,32.27 -203.36,33.09 -106.6,-1.7 -212.38,-19.85 -318.16,-56.23 -104.96,-36.37 -204.18,-82.64 -295.9,-138.87 -92.6,-55.35 -171.91,-112.41 -238.86,-171.91l-456.27 659.57z"/>
     </clipPath>
     <clipPath id="id1" style="clip-rule:nonzero">
      <path d="M-0 3605.24l867.83 0 0 -1095.95 605.01 0c172.74,-0.83 329.78,-31.4 471.11,-91.75 141.33,-60.33 262.83,-145.47 365.31,-255.39 101.66,-109.93 180.19,-239.69 235.56,-389.29 55.37,-149.6 82.65,-314.08 83.48,-493.43 -0.83,-179.36 -28.11,-343.01 -83.48,-491.78 -55.38,-148.77 -133.9,-277.7 -235.56,-385.98 -102.48,-109.1 -223.98,-192.58 -365.31,-252.08 -141.33,-59.51 -298.37,-89.27 -471.11,-90.09l-1472.84 0 0 3545.74zm867.83 -1839.81l0 -962.06 441.36 0c95.88,0.83 176.04,20.66 241.34,60.33 64.48,39.67 113.23,95.05 146.3,166.96 32.23,71.09 48.77,153.73 48.77,248.79 0,95.04 -16.54,178.52 -49.6,251.25 -33.06,72.73 -83.48,129.77 -150.42,171.92 -66.95,41.33 -150.43,61.99 -251.26,62.82l-426.49 0z"/>
     </clipPath>
 </defs>
 <g id="Layer_x0020_1">
  <metadata id="CorelCorpID_0Corel-Layer"/>
  <g id="_2981293317152">
   <g>
    <path class="fil0" d="M5188.74 990.72c-67.58,0 -120.43,27.79 -158.28,83.09 -38.09,55.55 -57.03,132 -57.03,229.57 0,202.51 77.18,303.78 231.29,303.78 46.45,0 91.67,-6.39 135.42,-19.4 43.52,-13.03 87.51,-28.52 131.76,-46.96l0 240.88c-88,39.08 -187.3,58.5 -298.15,58.5 -159.02,0 -280.69,-46.21 -365.49,-138.39 -84.8,-92.17 -127.06,-225.39 -127.06,-399.65 0,-108.88 20.4,-204.73 61.45,-287.33 41.04,-82.58 100.03,-146 177.21,-190.48 77.18,-44.48 167.63,-66.61 271.84,-66.61 113.79,0 222.43,24.58 326.15,73.99l-87 223.91c-38.84,-18.44 -77.91,-33.67 -116.75,-46.21 -38.82,-12.54 -80.61,-18.69 -125.36,-18.69zm488.38 834.71l0 -1052.95 284.38 0 0 822.89 405.3 0 0 230.05 -689.68 0zm1843.41 -527.71c0,177.21 -43.27,311.9 -130.27,404.08 -86.75,92.17 -214.09,138.39 -381.71,138.39 -165.16,0 -291.73,-46.45 -379.97,-139.12 -88,-92.66 -132,-227.61 -132,-404.57 0,-175.24 43.76,-309.21 131.49,-401.63 87.51,-92.41 214.84,-138.63 381.96,-138.63 167.63,0 294.45,45.96 380.97,137.66 86.53,91.67 129.53,226.36 129.53,403.82zm-724.34 -0.25c0,203.51 70.79,305.27 212.36,305.27 72.02,0 125.6,-24.82 160.27,-74.22 34.9,-49.42 52.35,-126.33 52.35,-231.05 0,-105.19 -17.69,-182.85 -53.09,-233 -35.15,-50.15 -87.99,-75.21 -158.05,-75.21 -142.55,0 -213.84,102.73 -213.84,308.21zm1809.48 -524.99l0 633.87c0,137.9 -38.82,244.81 -116.99,320.27 -77.92,75.71 -190.49,113.56 -337.46,113.56 -143.55,0 -253.91,-36.64 -330.85,-110.12 -77.18,-73.48 -115.51,-179.18 -115.51,-317.08l0 -640.51 285.84 0 0 617.9c0,74.23 13.76,128.3 41.79,161.96 27.78,33.69 68.82,50.4 123.15,50.4 58.24,0 100.27,-16.71 126.57,-50.13 26.05,-33.18 39.08,-88 39.08,-163.7l0 -616.44 284.36 0zm1114.67 504.11c0,175.73 -48.42,311.17 -145.02,406.29 -96.85,95.11 -232.76,142.54 -408,142.54l-340.68 0 0 -1052.95 364.51 0c168.87,0 299.38,43.25 391.3,129.52 91.94,86.51 137.9,211.38 137.9,374.59zm-295.2 10.57c0,-96.61 -19.17,-168.12 -57.27,-214.84 -38.09,-46.45 -96.1,-69.8 -174.01,-69.8l-82.85 0 0 589.9 63.43 0c86.51,0 149.93,-25.08 190.23,-75.21 40.31,-50.15 60.46,-126.83 60.46,-230.05z"/>
    <path class="fil0" d="M5235.68 2657.04c0,49.19 -12.39,92.81 -37.36,130.91 -24.95,38.08 -60.82,67.67 -107.79,88.94 -46.96,21.07 -102.05,31.61 -165.1,31.61 -52.68,0 -97.07,-3.7 -132.76,-11.09 -35.68,-7.4 -72.83,-20.34 -111.49,-38.82l0 -190.81c40.68,20.88 83.2,37.16 127.21,48.99 44,11.64 84.5,17.56 121.28,17.56 31.8,0 55.1,-5.54 69.89,-16.46 14.8,-10.91 22.19,-25.14 22.19,-42.33 0,-10.91 -2.97,-20.35 -9.06,-28.49 -5.92,-8.12 -15.54,-16.26 -28.67,-24.57 -13.11,-8.33 -48.26,-25.34 -105.39,-51.04 -51.58,-23.49 -90.22,-46.22 -116.11,-68.23 -25.69,-22 -44.92,-47.32 -57.31,-75.81 -12.4,-28.47 -18.67,-62.3 -18.67,-101.32 0,-72.83 26.43,-129.79 79.49,-170.64 53.06,-40.87 126.1,-61.2 218.91,-61.2 81.9,0 165.47,18.85 250.71,56.76l-65.45 164.92c-74.13,-33.83 -137.93,-50.84 -191.73,-50.84 -27.74,0 -48.07,4.99 -60.64,14.8 -12.76,9.8 -19.05,22 -19.05,36.42 0,15.53 8.14,29.58 24.23,41.79 16.08,12.19 59.53,34.58 130.71,67.11 68.22,30.7 115.56,63.78 142.18,98.92 26.44,35.32 39.75,79.49 39.75,132.93zm592.93 240.37l-470.36 0 0 -792.07 470.36 0 0 171.95 -256.43 0 0 124.25 237.4 0 0 171.94 -237.4 0 0 149.76 256.43 0 0 174.17zm352.4 -288.43l0 288.43 -213.93 0 0 -792.07 259.6 0c215.2,0 322.82,78.03 322.82,233.88 0,91.72 -44.74,162.71 -134.23,212.81l230.74 345.38 -242.57 0 -168.06 -288.43 -54.36 0zm0 -160.85l40.12 0c74.88,0 112.42,-33.1 112.42,-99.1 0,-54.55 -36.8,-81.72 -110.19,-81.72l-42.35 0 0 180.83zm981.75 -342.79l239.44 0 -259.59 792.07 -251.82 0 -258.47 -792.07 240.55 0 107.77 401.39c22.39,89.31 34.77,151.43 37,186.37 2.4,-25.14 7.57,-56.76 15.16,-94.66 7.57,-38.09 14.23,-67.86 19.97,-89.49l110 -403.61zm324.85 792.07l0 -792.07 215.03 0 0 792.07 -215.03 0zm738.81 -627.89c-50.84,0 -90.59,20.89 -119.06,62.5 -28.66,41.78 -42.9,99.28 -42.9,172.69 0,152.34 58.05,228.52 173.99,228.52 34.94,0 68.96,-4.81 101.87,-14.6 32.72,-9.8 65.82,-21.45 99.1,-35.32l0 181.18c-66.19,29.41 -140.89,44.02 -224.27,44.02 -119.62,0 -211.15,-34.76 -274.94,-104.1 -63.79,-69.34 -95.59,-169.54 -95.59,-300.63 0,-81.91 15.35,-154 46.23,-216.14 30.86,-62.12 75.24,-109.82 133.29,-143.28 58.06,-33.47 126.11,-50.11 204.49,-50.11 85.59,0 167.31,18.48 245.34,55.66l-65.44 168.43c-29.22,-13.88 -58.6,-25.33 -87.82,-34.76 -29.21,-9.44 -60.64,-14.06 -94.3,-14.06zm837.73 627.89l-470.35 0 0 -792.07 470.35 0 0 171.95 -256.43 0 0 124.25 237.4 0 0 171.94 -237.4 0 0 149.76 256.43 0 0 174.17zm656.18 -240.37c0,49.19 -12.39,92.81 -37.36,130.91 -24.95,38.08 -60.82,67.67 -107.79,88.94 -46.95,21.07 -102.05,31.61 -165.1,31.61 -52.68,0 -97.07,-3.7 -132.76,-11.09 -35.68,-7.4 -72.83,-20.34 -111.49,-38.82l0 -190.81c40.68,20.88 83.2,37.16 127.21,48.99 44,11.64 84.5,17.56 121.28,17.56 31.8,0 55.1,-5.54 69.89,-16.46 14.8,-10.91 22.19,-25.14 22.19,-42.33 0,-10.91 -2.97,-20.35 -9.06,-28.49 -5.92,-8.12 -15.54,-16.26 -28.67,-24.57 -13.11,-8.33 -48.26,-25.34 -105.38,-51.04 -51.58,-23.49 -90.23,-46.22 -116.12,-68.23 -25.69,-22 -44.92,-47.32 -57.31,-75.81 -12.39,-28.47 -18.67,-62.3 -18.67,-101.32 0,-72.83 26.43,-129.79 79.49,-170.64 53.06,-40.87 126.1,-61.2 218.91,-61.2 81.91,0 165.47,18.85 250.71,56.76l-65.45 164.92c-74.13,-33.83 -137.93,-50.84 -191.73,-50.84 -27.74,0 -48.07,4.99 -60.64,14.8 -12.76,9.8 -19.04,22 -19.04,36.42 0,15.53 8.13,29.58 24.22,41.79 16.08,12.19 59.53,34.58 130.71,67.11 68.22,30.7 115.56,63.78 142.18,98.92 26.44,35.32 39.75,79.49 39.75,132.93z"/>
   </g>
   <g>
    <path class="fil1" d="M1645.55 3158.93c113.28,112.4 240.56,205.82 380.19,281.02 140.51,75.21 287.64,131.38 441.39,168.57 153.74,37.2 308.26,56.23 462.83,56.23 205,-0.82 385.17,-30.58 542.2,-89.26 156.2,-57.88 287.64,-138.06 394.24,-240.5 106.59,-102.5 186.78,-219.88 241.37,-352.13 54.53,-133.08 81.83,-274.4 81.83,-424 -0.88,-139.69 -23.2,-261.17 -66.95,-366.12 -44.63,-104.14 -103.32,-194.23 -177.7,-271.07 -74.39,-76.9 -158.73,-143.03 -251.27,-199.2 -92.6,-56.23 -188.48,-104.96 -287.65,-147.95 -99.15,-42.99 -195.04,-82.64 -287.64,-119.83 -92.54,-36.38 -176.83,-73.56 -251.21,-112.4 -74.39,-38.01 -133.08,-80.18 -177.71,-127.27 -43.82,-46.33 -66.12,-100.86 -66.94,-163.71 0,-48.73 13.23,-91.73 39.65,-129.74 26.47,-38 66.94,-67.76 122.35,-89.26 56.17,-22.32 127.27,-33.91 214.85,-33.91 93.41,0.88 187.66,14.88 282.66,42.17 95.07,28.12 185.15,65.3 271.13,112.4 85.92,46.27 162.83,99.22 229.77,157.85l366.95 -709.12c-103.32,-90.9 -214.91,-166.11 -336.38,-225.61 -121.48,-59.51 -247.12,-103.33 -378.55,-132.26 -130.62,-29.76 -262.82,-43.82 -395.89,-43.82 -186.78,0.82 -358.68,26.48 -514.08,77.73 -156.21,51.2 -291.8,124.76 -406.66,219.82 -115.73,95.06 -204.17,209.1 -267.79,342.18 -62.84,133.07 -95.06,281.84 -95.88,446.31 0.82,138.06 23.14,259.53 67.77,364.5 43.81,104.14 102.5,195.03 176.88,272.76 74.39,77.67 158.68,145.44 251.27,203.3 92.54,57.87 188.42,109.12 287.59,154.57 99.21,44.62 195.1,86.8 287.64,124.82 93.42,38.83 176.89,78.49 251.27,118.2 74.39,39.65 133.89,82.64 177.71,129.73 43.81,47.97 66.12,102.5 66.94,164.47 0,47.15 -14.05,88.44 -41.35,125.64 -27.23,38.01 -67.76,66.95 -122.29,89.26 -54.59,21.5 -122.36,32.27 -203.36,33.09 -106.6,-1.7 -212.38,-19.85 -318.16,-56.23 -104.96,-36.37 -204.18,-82.64 -295.9,-138.87 -92.6,-55.35 -171.91,-112.41 -238.86,-171.91l-456.27 659.57z"/>
    <g style="clip-path:url(#id0)">
     <g>
      <path id="1" class="fil2" d="M2664.71 2137.4c5.28,-52.19 8.03,-105.78 8.3,-160.76 -0.88,-179.35 -28.12,-342.99 -83.53,-491.76 -55.35,-148.77 -133.89,-277.69 -235.51,-385.98 -102.5,-109.12 -224.03,-192.59 -365.36,-252.09 -61.36,-25.84 -125.69,-46.06 -192.98,-60.75 -26.7,93.4 -40.42,193.39 -40.95,299.98 0.82,138.06 23.14,259.53 67.77,364.5 43.81,104.14 102.5,195.03 176.88,272.76 74.39,77.67 158.68,145.44 251.27,203.3 92.54,57.87 188.42,109.12 287.59,154.57 42.8,19.25 84.97,38.04 126.52,56.24z"/>
     </g>
    </g>
    <path class="fil3" d="M1645.55 3158.93c113.28,112.4 240.56,205.82 380.19,281.02 140.51,75.21 287.64,131.38 441.39,168.57 153.74,37.2 308.26,56.23 462.83,56.23 205,-0.82 385.17,-30.58 542.2,-89.26 156.2,-57.88 287.64,-138.06 394.24,-240.5 106.59,-102.5 186.78,-219.88 241.37,-352.13 54.53,-133.08 81.83,-274.4 81.83,-424 -0.88,-139.69 -23.2,-261.17 -66.95,-366.12 -44.63,-104.14 -103.32,-194.23 -177.7,-271.07 -74.39,-76.9 -158.73,-143.03 -251.27,-199.2 -92.6,-56.23 -188.48,-104.96 -287.65,-147.95 -99.15,-42.99 -195.04,-82.64 -287.64,-119.83 -92.54,-36.38 -176.83,-73.56 -251.21,-112.4 -74.39,-38.01 -133.08,-80.18 -177.71,-127.27 -43.82,-46.33 -66.12,-100.86 -66.94,-163.71 0,-48.73 13.23,-91.73 39.65,-129.74 26.47,-38 66.94,-67.76 122.35,-89.26 56.17,-22.32 127.27,-33.91 214.85,-33.91 93.41,0.88 187.66,14.88 282.66,42.17 95.07,28.12 185.15,65.3 271.13,112.4 85.92,46.27 162.83,99.22 229.77,157.85l366.95 -709.12c-103.32,-90.9 -214.91,-166.11 -336.38,-225.61 -121.48,-59.51 -247.12,-103.33 -378.55,-132.26 -130.62,-29.76 -262.82,-43.82 -395.89,-43.82 -186.78,0.82 -358.68,26.48 -514.08,77.73 -156.21,51.2 -291.8,124.76 -406.66,219.82 -115.73,95.06 -204.17,209.1 -267.79,342.18 -62.84,133.07 -95.06,281.84 -95.88,446.31 0.82,138.06 23.14,259.53 67.77,364.5 43.81,104.14 102.5,195.03 176.88,272.76 74.39,77.67 158.68,145.44 251.27,203.3 92.54,57.87 188.42,109.12 287.59,154.57 99.21,44.62 195.1,86.8 287.64,124.82 93.42,38.83 176.89,78.49 251.27,118.2 74.39,39.65 133.89,82.64 177.71,129.73 43.81,47.97 66.12,102.5 66.94,164.47 0,47.15 -14.05,88.44 -41.35,125.64 -27.23,38.01 -67.76,66.95 -122.29,89.26 -54.59,21.5 -122.36,32.27 -203.36,33.09 -106.6,-1.7 -212.38,-19.85 -318.16,-56.23 -104.96,-36.37 -204.18,-82.64 -295.9,-138.87 -92.6,-55.35 -171.91,-112.41 -238.86,-171.91l-456.27 659.57z"/>
    <path class="fil1" d="M-0 3605.24l867.83 0 0 -1095.95 605.01 0c172.74,-0.83 329.78,-31.4 471.11,-91.75 141.33,-60.33 262.83,-145.47 365.31,-255.39 101.66,-109.93 180.19,-239.69 235.56,-389.29 55.37,-149.6 82.65,-314.08 83.48,-493.43 -0.83,-179.36 -28.11,-343.01 -83.48,-491.78 -55.38,-148.77 -133.9,-277.7 -235.56,-385.98 -102.48,-109.1 -223.98,-192.58 -365.31,-252.08 -141.33,-59.51 -298.37,-89.27 -471.11,-90.09l-1472.84 0 0 3545.74zm867.83 -1839.81l0 -962.06 441.36 0c95.88,0.83 176.04,20.66 241.34,60.33 64.48,39.67 113.23,95.05 146.3,166.96 32.23,71.09 48.77,153.73 48.77,248.79 0,95.04 -16.54,178.52 -49.6,251.25 -33.06,72.73 -83.48,129.77 -150.42,171.92 -66.95,41.33 -150.43,61.99 -251.26,62.82l-426.49 0z"/>
    <g style="clip-path:url(#id1)">
     <g>
      <path id="1" class="fil2" d="M1910.31 136.1l-1.03 2.15c-62.84,133.07 -95.06,281.84 -95.88,446.31 0.26,43.59 2.66,85.5 7.23,125.79 9.05,-24.01 19.02,-47.55 29.92,-70.62 63.62,-133.08 152.06,-247.12 267.79,-342.18 12.37,-10.24 24.98,-20.22 37.84,-29.97 -65.01,-46.52 -135.72,-85.77 -212.23,-117.99 -11.11,-4.68 -22.33,-9.18 -33.64,-13.49z"/>
     </g>
    </g>
    <path class="fil3" d="M-0 3605.24l867.83 0 0 -1095.95 605.01 0c172.74,-0.83 329.78,-31.4 471.11,-91.75 141.33,-60.33 262.83,-145.47 365.31,-255.39 101.66,-109.93 180.19,-239.69 235.56,-389.29 55.37,-149.6 82.65,-314.08 83.48,-493.43 -0.83,-179.36 -28.11,-343.01 -83.48,-491.78 -55.38,-148.77 -133.9,-277.7 -235.56,-385.98 -102.48,-109.1 -223.98,-192.58 -365.31,-252.08 -141.33,-59.51 -298.37,-89.27 -471.11,-90.09l-1472.84 0 0 3545.74zm867.83 -1839.81l0 -962.06 441.36 0c95.88,0.83 176.04,20.66 241.34,60.33 64.48,39.67 113.23,95.05 146.3,166.96 32.23,71.09 48.77,153.73 48.77,248.79 0,95.04 -16.54,178.52 -49.6,251.25 -33.06,72.73 -83.48,129.77 -150.42,171.92 -66.95,41.33 -150.43,61.99 -251.26,62.82l-426.49 0z"/>
   </g>
  </g>
 </g>
</svg>
