<svg
  xmlns="http://www.w3.org/2000/svg"
  width="30"
  height="30"
  viewBox="0 0 1985.84 1985.84"
  shape-rendering="geometricPrecision"
  image-rendering="optimizeQuality"
  fill-rule="evenodd"
>
  <path
    d="M82.74 1985.84c-45.69 0-82.74-37.05-82.74-82.74V82.74C0 37.05 37.05 0 82.74 0H1903.1c45.69 0 82.74 37.05 82.74 82.74V1903.1c0 45.69-37.05 82.74-82.74 82.74H82.74zM248.23 165.49c45.69 0 82.74 37.05 82.74 82.74s-37.05 82.74-82.74 82.74-82.74-37.05-82.74-82.74 37.05-82.74 82.74-82.74zm661.92 0c45.69 0 82.74 37.05 82.74 82.74s-37.05 82.74-82.74 82.74-82.74-37.05-82.74-82.74 37.05-82.74 82.74-82.74zm-330.96 0c45.69 0 82.74 37.05 82.74 82.74s-37.05 82.74-82.74 82.74-82.74-37.05-82.74-82.74 37.05-82.74 82.74-82.74z"
    fill="#fff"
  />
</svg>
